# This file uses meters as units for non-parametric coordinates.

mtllib Wall.mtl
g default
v -79.367035 84.627869 21.403334
v -38.126152 108.438316 21.403334
v -374.484009 595.785461 21.403334
v -333.243134 619.595886 21.403334
v -374.484009 595.785461 -21.403334
v -333.243134 619.595886 -21.403334
v -79.367035 84.627869 -21.403334
v -38.126152 108.438316 -21.403334
v -279.367035 84.627869 21.403334
v -238.126160 108.438316 21.403334
v -574.484009 595.785461 21.403334
v -533.243103 619.595886 21.403334
v -574.484009 595.785461 -21.403334
v -533.243103 619.595886 -21.403334
v -279.367035 84.627869 -21.403334
v -238.126160 108.438316 -21.403334
v 420.632996 84.627869 21.403334
v 461.873810 108.438316 21.403334
v 125.515984 595.785461 21.403334
v 166.756866 619.595886 21.403334
v 125.515984 595.785461 -21.403334
v 166.756866 619.595886 -21.403334
v 420.632996 84.627869 -21.403334
v 461.873810 108.438316 -21.403334
v 320.632965 84.627869 21.403334
v 361.873840 108.438316 21.403334
v 25.515984 595.785461 21.403334
v 66.756874 619.595886 21.403334
v 25.515984 595.785461 -21.403334
v 66.756874 619.595886 -21.403334
v 320.632965 84.627869 -21.403334
v 361.873840 108.438316 -21.403334
v 220.632965 84.627869 21.403334
v 261.873871 108.438316 21.403334
v -74.484016 595.785461 21.403334
v -33.243126 619.595886 21.403334
v -74.484016 595.785461 -21.403334
v -33.243126 619.595886 -21.403334
v 220.632965 84.627869 -21.403334
v 261.873871 108.438316 -21.403334
v -563.396790 381.611023 21.403334
v -522.155884 405.421448 21.403334
v -563.396790 381.611023 -21.403334
v -522.155884 405.421448 -21.403334
v -372.206146 50.459099 21.403334
v -330.965271 74.269531 21.403334
v -330.965271 74.269531 -21.403334
v -372.206146 50.459099 -21.403334
v 325.515991 595.785522 21.403334
v 366.756866 619.595947 21.403334
v 325.515991 595.785522 -21.403334
v 366.756866 619.595947 -21.403334
v 516.706604 264.633575 21.403334
v 557.947510 288.444031 21.403334
v 557.947510 288.444031 -21.403334
v 516.706604 264.633575 -21.403334
v 520.632935 84.627869 21.403334
v 561.873779 108.438316 21.403334
v 225.515991 595.785461 21.403334
v 266.756866 619.595886 21.403334
v 225.515991 595.785461 -21.403334
v 266.756866 619.595886 -21.403334
v 520.632935 84.627869 -21.403334
v 561.873779 108.438316 -21.403334
v -179.367035 84.627869 21.403334
v -138.126144 108.438316 21.403334
v -474.484009 595.785461 21.403334
v -433.243134 619.595886 21.403334
v -474.484009 595.785461 -21.403334
v -433.243134 619.595886 -21.403334
v -179.367035 84.627869 -21.403334
v -138.126144 108.438316 -21.403334
v -600.000000 33.864601 50.000000
v 600.000000 33.864601 50.000000
v -600.000000 133.864594 50.000000
v 600.000000 133.864594 50.000000
v -600.000000 133.864594 -50.000000
v 600.000000 133.864594 -50.000000
v -600.000000 33.864601 -50.000000
v 600.000000 33.864601 -50.000000
v -480.000031 133.864594 50.000000
v -480.000031 133.864594 -50.000000
v -480.000031 33.864601 -50.000000
v -480.000031 33.864601 50.000000
v 480.000031 133.864594 50.000000
v 480.000031 33.864601 50.000000
v 480.000031 33.864601 -50.000000
v 480.000031 133.864594 -50.000000
v 480.000031 583.864624 -50.000000
v 480.000031 583.864624 50.000000
v 600.000000 583.864624 50.000000
v 600.000000 583.864624 -50.000000
v -600.000000 583.864624 50.000000
v -480.000031 583.864624 50.000000
v -480.000031 583.864624 -50.000000
v -600.000000 583.864624 -50.000000
v 480.000031 673.864624 -50.000000
v 480.000031 673.864624 50.000000
v 600.000000 673.864624 50.000000
v 600.000000 673.864624 -50.000000
v -600.000000 673.864624 50.000000
v -480.000031 673.864624 50.000000
v -480.000031 673.864624 -50.000000
v -600.000000 673.864624 -50.000000
v 20.632963 84.627869 21.403334
v 61.873852 108.438316 21.403334
v -274.484009 595.785461 21.403334
v -233.243134 619.595886 21.403334
v -274.484009 595.785461 -21.403334
v -233.243134 619.595886 -21.403334
v 20.632963 84.627869 -21.403334
v 61.873852 108.438316 -21.403334
v 120.632973 84.627869 21.403334
v 161.873856 108.438316 21.403334
v -174.484009 595.785461 21.403334
v -133.243134 619.595886 21.403334
v -174.484009 595.785461 -21.403334
v -133.243134 619.595886 -21.403334
v 120.632973 84.627869 -21.403334
v 161.873856 108.438316 -21.403334
vt 0.375000 0.000000
vt 0.625000 0.000000
vt 0.375000 0.250000
vt 0.625000 0.250000
vt 0.375000 0.500000
vt 0.625000 0.500000
vt 0.375000 0.750000
vt 0.625000 0.750000
vt 0.375000 1.000000
vt 0.625000 1.000000
vt 0.875000 0.000000
vt 0.875000 0.250000
vt 0.125000 0.000000
vt 0.125000 0.250000
vt 0.375000 0.000000
vt 0.625000 0.000000
vt 0.625000 0.250000
vt 0.375000 0.250000
vt 0.625000 0.500000
vt 0.375000 0.500000
vt 0.625000 0.750000
vt 0.375000 0.750000
vt 0.625000 1.000000
vt 0.375000 1.000000
vt 0.875000 0.000000
vt 0.875000 0.250000
vt 0.125000 0.000000
vt 0.125000 0.250000
vt 0.375000 0.000000
vt 0.625000 0.000000
vt 0.625000 0.250000
vt 0.375000 0.250000
vt 0.625000 0.500000
vt 0.375000 0.500000
vt 0.625000 0.750000
vt 0.375000 0.750000
vt 0.625000 1.000000
vt 0.375000 1.000000
vt 0.875000 0.000000
vt 0.875000 0.250000
vt 0.125000 0.000000
vt 0.125000 0.250000
vt 0.375000 0.000000
vt 0.625000 0.000000
vt 0.625000 0.250000
vt 0.375000 0.250000
vt 0.625000 0.500000
vt 0.375000 0.500000
vt 0.625000 0.750000
vt 0.375000 0.750000
vt 0.625000 1.000000
vt 0.375000 1.000000
vt 0.875000 0.000000
vt 0.875000 0.250000
vt 0.125000 0.000000
vt 0.125000 0.250000
vt 0.375000 0.000000
vt 0.625000 0.000000
vt 0.625000 0.250000
vt 0.375000 0.250000
vt 0.625000 0.500000
vt 0.375000 0.500000
vt 0.625000 0.750000
vt 0.375000 0.750000
vt 0.625000 1.000000
vt 0.375000 1.000000
vt 0.875000 0.000000
vt 0.875000 0.250000
vt 0.125000 0.000000
vt 0.125000 0.250000
vt 0.375000 0.088038
vt 0.625000 0.088038
vt 0.625000 0.250000
vt 0.375000 0.250000
vt 0.625000 0.500000
vt 0.375000 0.500000
vt 0.625000 0.661962
vt 0.375000 0.661962
vt 0.875000 0.088038
vt 0.875000 0.250000
vt 0.125000 0.088038
vt 0.125000 0.250000
vt 0.375000 0.088038
vt 0.625000 0.088038
vt 0.625000 0.250000
vt 0.375000 0.250000
vt 0.625000 0.500000
vt 0.375000 0.500000
vt 0.625000 0.661962
vt 0.375000 0.661962
vt 0.875000 0.088038
vt 0.875000 0.250000
vt 0.125000 0.088038
vt 0.125000 0.250000
vt 0.375000 0.000000
vt 0.625000 0.000000
vt 0.625000 0.250000
vt 0.375000 0.250000
vt 0.625000 0.500000
vt 0.375000 0.500000
vt 0.625000 0.750000
vt 0.375000 0.750000
vt 0.625000 1.000000
vt 0.375000 1.000000
vt 0.875000 0.000000
vt 0.875000 0.250000
vt 0.125000 0.000000
vt 0.125000 0.250000
vt 0.375000 0.000000
vt 0.625000 0.000000
vt 0.625000 0.250000
vt 0.375000 0.250000
vt 0.625000 0.500000
vt 0.375000 0.500000
vt 0.625000 0.750000
vt 0.375000 0.750000
vt 0.625000 1.000000
vt 0.375000 1.000000
vt 0.875000 0.000000
vt 0.875000 0.250000
vt 0.125000 0.000000
vt 0.125000 0.250000
vt 0.600000 0.250000
vt 0.600000 0.000000
vt 0.625000 0.000000
vt 0.625000 0.250000
vt 0.600000 0.500000
vt 0.600000 0.250000
vt 0.625000 0.250000
vt 0.625000 0.500000
vt 0.600000 0.750000
vt 0.600000 0.500000
vt 0.625000 0.500000
vt 0.625000 0.750000
vt 0.600000 1.000000
vt 0.625000 1.000000
vt 0.875000 0.000000
vt 0.875000 0.250000
vt 0.125000 0.000000
vt 0.375000 0.000000
vt 0.375000 0.250000
vt 0.125000 0.250000
vt 0.375000 0.750000
vt 0.400000 0.750000
vt 0.400000 1.000000
vt 0.375000 1.000000
vt 0.375000 0.500000
vt 0.400000 0.500000
vt 0.375000 0.250000
vt 0.400000 0.250000
vt 0.400000 0.500000
vt 0.375000 0.500000
vt 0.400000 0.000000
vt 0.400000 0.250000
vt 0.625000 0.250000
vt 0.600000 0.250000
vt 0.625000 0.500000
vt 0.600000 0.500000
vt 0.400000 0.250000
vt 0.375000 0.250000
vt 0.375000 0.500000
vt 0.400000 0.500000
vt 0.375000 0.000000
vt 0.625000 0.000000
vt 0.625000 0.250000
vt 0.375000 0.250000
vt 0.625000 0.500000
vt 0.375000 0.500000
vt 0.625000 0.750000
vt 0.375000 0.750000
vt 0.625000 1.000000
vt 0.375000 1.000000
vt 0.875000 0.000000
vt 0.875000 0.250000
vt 0.125000 0.000000
vt 0.125000 0.250000
vt 0.375000 0.000000
vt 0.625000 0.000000
vt 0.625000 0.250000
vt 0.375000 0.250000
vt 0.625000 0.500000
vt 0.375000 0.500000
vt 0.625000 0.750000
vt 0.375000 0.750000
vt 0.625000 1.000000
vt 0.375000 1.000000
vt 0.875000 0.000000
vt 0.875000 0.250000
vt 0.125000 0.000000
vt 0.125000 0.250000
vn 0.000000 0.000000 1.000000
vn 0.000000 0.000000 1.000000
vn 0.000000 0.000000 1.000000
vn 0.000000 0.000000 1.000000
vn -0.500000 0.866025 0.000000
vn -0.500000 0.866025 0.000000
vn -0.500000 0.866025 0.000000
vn -0.500000 0.866025 0.000000
vn 0.000000 0.000000 -1.000000
vn 0.000000 0.000000 -1.000000
vn 0.000000 0.000000 -1.000000
vn 0.000000 0.000000 -1.000000
vn 0.500000 -0.866025 0.000000
vn 0.500000 -0.866025 0.000000
vn 0.500000 -0.866025 0.000000
vn 0.500000 -0.866025 0.000000
vn 0.866025 0.500000 0.000000
vn 0.866025 0.500000 0.000000
vn 0.866025 0.500000 0.000000
vn 0.866025 0.500000 0.000000
vn -0.866025 -0.500000 0.000000
vn -0.866025 -0.500000 0.000000
vn -0.866025 -0.500000 0.000000
vn -0.866025 -0.500000 0.000000
vn 0.000000 0.000000 1.000000
vn 0.000000 0.000000 1.000000
vn 0.000000 0.000000 1.000000
vn 0.000000 0.000000 1.000000
vn -0.499999 0.866026 0.000000
vn -0.499999 0.866026 0.000000
vn -0.499999 0.866026 0.000000
vn -0.499999 0.866026 0.000000
vn 0.000000 0.000000 -1.000000
vn 0.000000 0.000000 -1.000000
vn 0.000000 0.000000 -1.000000
vn 0.000000 0.000000 -1.000000
vn 0.500000 -0.866025 0.000000
vn 0.500000 -0.866025 0.000000
vn 0.500000 -0.866025 0.000000
vn 0.500000 -0.866025 0.000000
vn 0.866025 0.500000 0.000000
vn 0.866025 0.500000 0.000000
vn 0.866025 0.500000 0.000000
vn 0.866025 0.500000 0.000000
vn -0.866025 -0.500000 0.000000
vn -0.866025 -0.500000 0.000000
vn -0.866025 -0.500000 0.000000
vn -0.866025 -0.500000 0.000000
vn 0.000000 0.000000 1.000000
vn 0.000000 0.000000 1.000000
vn 0.000000 0.000000 1.000000
vn 0.000000 0.000000 1.000000
vn -0.500000 0.866026 0.000000
vn -0.500000 0.866026 0.000000
vn -0.500000 0.866026 0.000000
vn -0.500000 0.866026 0.000000
vn 0.000000 0.000000 -1.000000
vn 0.000000 0.000000 -1.000000
vn 0.000000 0.000000 -1.000000
vn 0.000000 0.000000 -1.000000
vn 0.500001 -0.866025 0.000000
vn 0.500001 -0.866025 0.000000
vn 0.500001 -0.866025 0.000000
vn 0.500001 -0.866025 0.000000
vn 0.866025 0.500000 0.000000
vn 0.866025 0.500000 0.000000
vn 0.866025 0.500000 0.000000
vn 0.866025 0.500000 0.000000
vn -0.866025 -0.500000 0.000000
vn -0.866025 -0.500000 0.000000
vn -0.866025 -0.500000 0.000000
vn -0.866025 -0.500000 0.000000
vn 0.000000 0.000000 1.000000
vn 0.000000 0.000000 1.000000
vn 0.000000 0.000000 1.000000
vn 0.000000 0.000000 1.000000
vn -0.500000 0.866026 0.000000
vn -0.500000 0.866026 0.000000
vn -0.500000 0.866026 0.000000
vn -0.500000 0.866026 0.000000
vn 0.000000 0.000000 -1.000000
vn 0.000000 0.000000 -1.000000
vn 0.000000 0.000000 -1.000000
vn 0.000000 0.000000 -1.000000
vn 0.500000 -0.866025 0.000000
vn 0.500000 -0.866025 0.000000
vn 0.500000 -0.866025 0.000000
vn 0.500000 -0.866025 0.000000
vn 0.866025 0.500000 0.000000
vn 0.866025 0.500000 0.000000
vn 0.866025 0.500000 0.000000
vn 0.866025 0.500000 0.000000
vn -0.866025 -0.500000 0.000000
vn -0.866025 -0.500000 0.000000
vn -0.866025 -0.500000 0.000000
vn -0.866025 -0.500000 0.000000
vn 0.000000 0.000000 1.000000
vn 0.000000 0.000000 1.000000
vn 0.000000 0.000000 1.000000
vn 0.000000 0.000000 1.000000
vn -0.500000 0.866026 0.000000
vn -0.500000 0.866026 0.000000
vn -0.500000 0.866026 0.000000
vn -0.500000 0.866026 0.000000
vn 0.000000 0.000000 -1.000000
vn 0.000000 0.000000 -1.000000
vn 0.000000 0.000000 -1.000000
vn 0.000000 0.000000 -1.000000
vn 0.500000 -0.866025 0.000000
vn 0.500000 -0.866025 0.000000
vn 0.500000 -0.866025 0.000000
vn 0.500000 -0.866025 0.000000
vn 0.866025 0.500000 0.000000
vn 0.866025 0.500000 0.000000
vn 0.866025 0.500000 0.000000
vn 0.866025 0.500000 0.000000
vn -0.866025 -0.500000 0.000000
vn -0.866025 -0.500000 0.000000
vn -0.866025 -0.500000 0.000000
vn -0.866025 -0.500000 0.000000
vn 0.000000 0.000000 1.000000
vn 0.000000 0.000000 1.000000
vn 0.000000 0.000000 1.000000
vn 0.000000 0.000000 1.000000
vn -0.500000 0.866026 0.000000
vn -0.500000 0.866026 0.000000
vn -0.500000 0.866026 0.000000
vn -0.500000 0.866026 0.000000
vn 0.000000 0.000000 -1.000000
vn 0.000000 0.000000 -1.000000
vn 0.000000 0.000000 -1.000000
vn 0.000000 0.000000 -1.000000
vn 0.866026 0.500000 0.000000
vn 0.866026 0.500000 0.000000
vn 0.866026 0.500000 0.000000
vn 0.866026 0.500000 0.000000
vn -0.866025 -0.500000 0.000000
vn -0.866025 -0.500000 0.000000
vn -0.866025 -0.500000 0.000000
vn -0.866025 -0.500000 0.000000
vn 0.000000 0.000000 1.000000
vn 0.000000 0.000000 1.000000
vn 0.000000 0.000000 1.000000
vn 0.000000 0.000000 1.000000
vn -0.500000 0.866026 0.000000
vn -0.500000 0.866026 0.000000
vn -0.500000 0.866026 0.000000
vn -0.500000 0.866026 0.000000
vn 0.000000 0.000000 -1.000000
vn 0.000000 0.000000 -1.000000
vn 0.000000 0.000000 -1.000000
vn 0.000000 0.000000 -1.000000
vn 0.866026 0.500000 0.000000
vn 0.866026 0.500000 0.000000
vn 0.866026 0.500000 0.000000
vn 0.866026 0.500000 0.000000
vn -0.866026 -0.500000 0.000000
vn -0.866026 -0.500000 0.000000
vn -0.866026 -0.500000 0.000000
vn -0.866026 -0.500000 0.000000
vn 0.000000 0.000000 1.000000
vn 0.000000 0.000000 1.000000
vn 0.000000 0.000000 1.000000
vn 0.000000 0.000000 1.000000
vn -0.500000 0.866026 0.000000
vn -0.500000 0.866026 0.000000
vn -0.500000 0.866026 0.000000
vn -0.500000 0.866026 0.000000
vn 0.000000 0.000000 -1.000000
vn 0.000000 0.000000 -1.000000
vn 0.000000 0.000000 -1.000000
vn 0.000000 0.000000 -1.000000
vn 0.500001 -0.866025 0.000000
vn 0.500001 -0.866025 0.000000
vn 0.500001 -0.866025 0.000000
vn 0.500001 -0.866025 0.000000
vn 0.866025 0.500000 0.000000
vn 0.866025 0.500000 0.000000
vn 0.866025 0.500000 0.000000
vn 0.866025 0.500000 0.000000
vn -0.866026 -0.500000 0.000000
vn -0.866026 -0.500000 0.000000
vn -0.866026 -0.500000 0.000000
vn -0.866026 -0.500000 0.000000
vn 0.000000 0.000000 1.000000
vn 0.000000 0.000000 1.000000
vn 0.000000 0.000000 1.000000
vn 0.000000 0.000000 1.000000
vn -0.500000 0.866026 0.000000
vn -0.500000 0.866026 0.000000
vn -0.500000 0.866026 0.000000
vn -0.500000 0.866026 0.000000
vn 0.000000 0.000000 -1.000000
vn 0.000000 0.000000 -1.000000
vn 0.000000 0.000000 -1.000000
vn 0.000000 0.000000 -1.000000
vn 0.500000 -0.866025 0.000000
vn 0.500000 -0.866025 0.000000
vn 0.500000 -0.866025 0.000000
vn 0.500000 -0.866025 0.000000
vn 0.866025 0.500000 0.000000
vn 0.866025 0.500000 0.000000
vn 0.866025 0.500000 0.000000
vn 0.866025 0.500000 0.000000
vn -0.866025 -0.500000 0.000000
vn -0.866025 -0.500000 0.000000
vn -0.866025 -0.500000 0.000000
vn -0.866025 -0.500000 0.000000
vn 0.000000 0.000000 1.000000
vn 0.000000 0.000000 1.000000
vn 0.000000 0.000000 1.000000
vn 0.000000 0.000000 1.000000
vn 0.000000 1.000000 0.000000
vn 0.000000 1.000000 0.000000
vn 0.000000 1.000000 0.000000
vn 0.000000 1.000000 0.000000
vn 0.000000 0.000000 -1.000000
vn 0.000000 0.000000 -1.000000
vn 0.000000 0.000000 -1.000000
vn 0.000000 0.000000 -1.000000
vn 0.000000 -1.000000 0.000000
vn 0.000000 -1.000000 0.000000
vn 0.000000 -1.000000 0.000000
vn 0.000000 -1.000000 0.000000
vn 1.000000 0.000000 0.000000
vn 1.000000 0.000000 0.000000
vn 1.000000 0.000000 0.000000
vn 1.000000 0.000000 0.000000
vn -1.000000 0.000000 0.000000
vn -1.000000 0.000000 0.000000
vn -1.000000 0.000000 0.000000
vn -1.000000 0.000000 0.000000
vn 0.000000 -1.000000 0.000000
vn 0.000000 -1.000000 0.000000
vn 0.000000 -1.000000 0.000000
vn 0.000000 -1.000000 0.000000
vn 0.000000 0.000000 -1.000000
vn 0.000000 0.000000 -1.000000
vn 0.000000 0.000000 -1.000000
vn 0.000000 0.000000 -1.000000
vn 0.000000 1.000000 0.000000
vn 0.000000 1.000000 0.000000
vn 0.000000 1.000000 0.000000
vn 0.000000 1.000000 0.000000
vn 0.000000 0.000000 1.000000
vn 0.000000 0.000000 1.000000
vn 0.000000 0.000000 1.000000
vn 0.000000 0.000000 1.000000
vn 0.000000 0.000000 1.000000
vn 0.000000 0.000000 1.000000
vn 1.000000 0.000000 0.000000
vn 1.000000 0.000000 0.000000
vn 0.000000 0.000000 -1.000000
vn 0.000000 0.000000 -1.000000
vn 0.000000 0.000000 1.000000
vn 0.000000 0.000000 1.000000
vn 0.000000 0.000000 -1.000000
vn 0.000000 0.000000 -1.000000
vn -1.000000 0.000000 0.000000
vn -1.000000 0.000000 0.000000
vn 0.000000 0.000000 1.000000
vn 0.000000 0.000000 1.000000
vn 1.000000 0.000000 0.000000
vn 1.000000 0.000000 0.000000
vn 0.000000 0.000000 -1.000000
vn 0.000000 0.000000 -1.000000
vn 0.000000 0.000000 1.000000
vn 0.000000 0.000000 1.000000
vn 0.000000 0.000000 -1.000000
vn 0.000000 0.000000 -1.000000
vn -1.000000 0.000000 0.000000
vn -1.000000 0.000000 0.000000
vn -1.000000 0.000000 0.000000
vn -1.000000 0.000000 0.000000
vn -1.000000 0.000000 0.000000
vn -1.000000 0.000000 0.000000
vn 0.000000 -1.000000 0.000000
vn 0.000000 -1.000000 0.000000
vn 0.000000 -1.000000 0.000000
vn 0.000000 -1.000000 0.000000
vn 1.000000 0.000000 0.000000
vn 1.000000 0.000000 0.000000
vn 1.000000 0.000000 0.000000
vn 1.000000 0.000000 0.000000
vn 0.000000 1.000000 0.000000
vn 0.000000 1.000000 0.000000
vn 0.000000 1.000000 0.000000
vn 0.000000 1.000000 0.000000
vn 0.000000 0.000000 1.000000
vn 0.000000 0.000000 1.000000
vn 0.000000 0.000000 1.000000
vn 0.000000 0.000000 1.000000
vn -0.500000 0.866026 0.000000
vn -0.500000 0.866026 0.000000
vn -0.500000 0.866026 0.000000
vn -0.500000 0.866026 0.000000
vn 0.000000 0.000000 -1.000000
vn 0.000000 0.000000 -1.000000
vn 0.000000 0.000000 -1.000000
vn 0.000000 0.000000 -1.000000
vn 0.500000 -0.866025 0.000000
vn 0.500000 -0.866025 0.000000
vn 0.500000 -0.866025 0.000000
vn 0.500000 -0.866025 0.000000
vn 0.866025 0.500000 0.000000
vn 0.866025 0.500000 0.000000
vn 0.866025 0.500000 0.000000
vn 0.866025 0.500000 0.000000
vn -0.866025 -0.500000 0.000000
vn -0.866025 -0.500000 0.000000
vn -0.866025 -0.500000 0.000000
vn -0.866025 -0.500000 0.000000
vn 0.000000 0.000000 1.000000
vn 0.000000 0.000000 1.000000
vn 0.000000 0.000000 1.000000
vn 0.000000 0.000000 1.000000
vn -0.500000 0.866026 0.000000
vn -0.500000 0.866026 0.000000
vn -0.500000 0.866026 0.000000
vn -0.500000 0.866026 0.000000
vn 0.000000 0.000000 -1.000000
vn 0.000000 0.000000 -1.000000
vn 0.000000 0.000000 -1.000000
vn 0.000000 0.000000 -1.000000
vn 0.500000 -0.866025 0.000000
vn 0.500000 -0.866025 0.000000
vn 0.500000 -0.866025 0.000000
vn 0.500000 -0.866025 0.000000
vn 0.866025 0.500000 0.000000
vn 0.866025 0.500000 0.000000
vn 0.866025 0.500000 0.000000
vn 0.866025 0.500000 0.000000
vn -0.866025 -0.500000 0.000000
vn -0.866025 -0.500000 0.000000
vn -0.866025 -0.500000 0.000000
vn -0.866025 -0.500000 0.000000
s off
g pCube13
usemtl initialShadingGroup
f 1/1/1 2/2/2 4/4/3 3/3/4
f 3/3/5 4/4/6 6/6/7 5/5/8
f 5/5/9 6/6/10 8/8/11 7/7/12
f 7/7/13 8/8/14 2/10/15 1/9/16
f 2/2/17 8/11/18 6/12/19 4/4/20
f 7/13/21 1/1/22 3/3/23 5/14/24
f 9/15/25 10/16/26 12/17/27 11/18/28
f 11/18/29 12/17/30 14/19/31 13/20/32
f 13/20/33 14/19/34 16/21/35 15/22/36
f 15/22/37 16/21/38 10/23/39 9/24/40
f 10/16/41 16/25/42 14/26/43 12/17/44
f 15/27/45 9/15/46 11/18/47 13/28/48
f 17/29/49 18/30/50 20/31/51 19/32/52
f 19/32/53 20/31/54 22/33/55 21/34/56
f 21/34/57 22/33/58 24/35/59 23/36/60
f 23/36/61 24/35/62 18/37/63 17/38/64
f 18/30/65 24/39/66 22/40/67 20/31/68
f 23/41/69 17/29/70 19/32/71 21/42/72
f 25/43/73 26/44/74 28/45/75 27/46/76
f 27/46/77 28/45/78 30/47/79 29/48/80
f 29/48/81 30/47/82 32/49/83 31/50/84
f 31/50/85 32/49/86 26/51/87 25/52/88
f 26/44/89 32/53/90 30/54/91 28/45/92
f 31/55/93 25/43/94 27/46/95 29/56/96
f 33/57/97 34/58/98 36/59/99 35/60/100
f 35/60/101 36/59/102 38/61/103 37/62/104
f 37/62/105 38/61/106 40/63/107 39/64/108
f 39/64/109 40/63/110 34/65/111 33/66/112
f 34/58/113 40/67/114 38/68/115 36/59/116
f 39/69/117 33/57/118 35/60/119 37/70/120
f 45/71/121 46/72/122 42/73/123 41/74/124
f 41/74/125 42/73/126 44/75/127 43/76/128
f 43/76/129 44/75/130 47/77/131 48/78/132
f 46/72/133 47/79/134 44/80/135 42/73/136
f 48/81/137 45/71/138 41/74/139 43/82/140
f 53/83/141 54/84/142 50/85/143 49/86/144
f 49/86/145 50/85/146 52/87/147 51/88/148
f 51/88/149 52/87/150 55/89/151 56/90/152
f 54/84/153 55/91/154 52/92/155 50/85/156
f 56/93/157 53/83/158 49/86/159 51/94/160
f 57/95/161 58/96/162 60/97/163 59/98/164
f 59/98/165 60/97/166 62/99/167 61/100/168
f 61/100/169 62/99/170 64/101/171 63/102/172
f 63/102/173 64/101/174 58/103/175 57/104/176
f 58/96/177 64/105/178 62/106/179 60/97/180
f 63/107/181 57/95/182 59/98/183 61/108/184
f 65/109/185 66/110/186 68/111/187 67/112/188
f 67/112/189 68/111/190 70/113/191 69/114/192
f 69/114/193 70/113/194 72/115/195 71/116/196
f 71/116/197 72/115/198 66/117/199 65/118/200
f 66/110/201 72/119/202 70/120/203 68/111/204
f 71/121/205 65/109/206 67/112/207 69/122/208
s 1
f 85/123/209 86/124/210 74/125/211 76/126/212
s 2
f 97/127/213 98/128/214 99/129/215 100/130/216
s 3
f 87/131/217 88/132/218 78/133/219 80/134/220
s 4
f 86/135/221 87/131/222 80/134/223 74/136/224
s 5
f 74/125/225 80/137/226 78/138/227 76/126/228
s 6
f 79/139/229 73/140/230 75/141/231 77/142/232
s 4
f 79/143/233 83/144/234 84/145/235 73/146/236
s 3
f 77/147/237 82/148/238 83/144/239 79/143/240
s 2
f 101/149/241 102/150/242 103/151/243 104/152/244
s 1
f 73/140/245 84/153/246 81/154/247 75/141/248
f 86/124/210 85/123/209 81/154/247 84/153/246
s 4
f 87/131/222 86/135/221 84/145/235 83/144/234
s 3
f 88/132/218 87/131/217 83/144/239 82/148/238
s 2
f 98/128/214 97/127/213 103/151/243 102/150/242
s 1
f 85/123/209 76/126/212 91/155/249 90/156/250
s 5
f 76/126/228 78/133/227 92/157/251 91/155/252
s 3
f 78/133/219 88/132/218 89/158/253 92/157/254
s 1
f 75/141/248 81/154/247 94/159/255 93/160/256
s 3
f 82/148/238 77/147/237 96/161/257 95/162/258
s 6
f 77/147/232 75/141/231 93/160/259 96/161/260
s 1
f 90/156/250 91/155/249 99/129/261 98/128/262
s 5
f 91/155/252 92/157/251 100/130/263 99/129/264
s 3
f 92/157/254 89/158/253 97/127/265 100/130/266
s 1
f 93/160/256 94/159/255 102/150/267 101/149/268
s 3
f 95/162/258 96/161/257 104/152/269 103/151/270
s 6
f 96/161/260 93/160/259 101/149/271 104/152/272
s 3
f 89/158/253 95/162/258 103/151/270 97/127/265
s 1
f 94/159/255 90/156/250 98/128/262 102/150/267
s off
f 85/123/273 90/156/274 89/158/275 88/132/276
f 90/156/277 94/159/278 95/162/279 89/158/280
f 94/159/281 81/154/282 82/148/283 95/162/284
f 81/154/285 85/123/286 88/132/287 82/148/288
f 105/163/289 106/164/290 108/165/291 107/166/292
f 107/166/293 108/165/294 110/167/295 109/168/296
f 109/168/297 110/167/298 112/169/299 111/170/300
f 111/170/301 112/169/302 106/171/303 105/172/304
f 106/164/305 112/173/306 110/174/307 108/165/308
f 111/175/309 105/163/310 107/166/311 109/176/312
f 113/177/313 114/178/314 116/179/315 115/180/316
f 115/180/317 116/179/318 118/181/319 117/182/320
f 117/182/321 118/181/322 120/183/323 119/184/324
f 119/184/325 120/183/326 114/185/327 113/186/328
f 114/178/329 120/187/330 118/188/331 116/179/332
f 119/189/333 113/177/334 115/180/335 117/190/336
